<?xml version="1.0" encoding="utf-8"?>
<!-- Generator: Adobe Illustrator 16.0.0, SVG Export Plug-In . SVG Version: 6.00 Build 0)  -->
<!DOCTYPE svg PUBLIC "-//W3C//DTD SVG 1.1//EN" "http://www.w3.org/Graphics/SVG/1.1/DTD/svg11.dtd">
<svg version="1.1" id="Ebene_1" xmlns="http://www.w3.org/2000/svg" xmlns:xlink="http://www.w3.org/1999/xlink" x="0px" y="0px"
	 width="172.441px" height="55.833px" viewBox="0 0 172.441 55.833" enable-background="new 0 0 172.441 55.833"
	 xml:space="preserve">
<path fill="#FFFFFF" d="M0,40.127h8.62c7.8,0,12.9-4.701,12.9-12.682c0-7.981-5.096-12.61-12.9-12.61H0V40.127z M4.6,36.176V18.794
	h3.77c5.059,0,8.406,3.027,8.406,8.655c0,5.7-3.277,8.727-8.406,8.727H4.6z M26.68,40.127h4.594V30.69h4.418l5.021,9.438h5.13
	l-5.199-9.439c-0.233-0.449-0.521-0.867-0.855-1.246v-0.07c2.698-1.221,4.388-3.953,4.275-6.912c0.176-2.934-1.464-5.676-4.132-6.91
	c-1.101-0.5-2.351-0.713-5.094-0.713H26.68V40.127z M31.274,26.701v-7.908h3.491c3.6,0,4.631,1.5,4.631,3.917
	c0.185,2.019-1.303,3.806-3.321,3.99c-0.223,0.02-0.446,0.02-0.669,0L31.274,26.701z M51.186,40.127h15.709v-3.951H55.78v-6.801
	h8.513v-3.957H55.78v-6.625h10.544v-3.955H51.186V40.127z M73.448,40.127h4.594V16.817l-4.594,2.419V40.127z M84.81,40.127h4.6
	V29.086h3.277l6.193,11.041h5.165l-7.587-13.176V26.88l7.159-12.041h-4.986l-5.948,10.294h-3.277V14.838h-4.6L84.81,40.127z
	 M105.328,27.307c-0.169,7.146,5.487,13.078,12.634,13.247c0.146,0.003,0.292,0.005,0.438,0.003
	c7.148,0.073,13.003-5.662,13.076-12.811c0.001-0.146,0-0.292-0.003-0.439c0.07-7.056-5.593-12.833-12.648-12.903
	c-0.142-0.001-0.282,0-0.424,0.003c-7.055-0.164-12.905,5.421-13.069,12.476C105.329,27.024,105.328,27.166,105.328,27.307
	 M110.066,27.307c-0.169-4.629,3.447-8.518,8.076-8.687c0.086-0.003,0.173-0.005,0.259-0.005c4.632,0.025,8.366,3.801,8.34,8.433
	c0,0.086-0.002,0.172-0.005,0.259c0,5.199-3.7,9.047-8.335,9.047S110.066,32.506,110.066,27.307 M135.712,40.127h4.595l1.067-14.143
	c0.108-1.674,0.036-3.954,0.036-3.954h0.071c0,0,0.783,2.493,1.389,3.954l4.061,9.801h4.024l4.101-9.801
	c0.604-1.46,1.354-3.917,1.354-3.917h0.07c0,0-0.07,2.244,0.036,3.917l1.066,14.143h4.56l-2.03-25.292H155.2l-4.95,12.5
	c-0.569,1.5-1.247,3.7-1.247,3.7h-0.07c0,0-0.712-2.209-1.281-3.7l-4.952-12.5h-4.915L135.712,40.127z"/>
<path fill="#FFFFFF" d="M103.65,55.73h0.6v-2.899h1.025l1.735,2.899h0.7l-1.935-3.188v-0.017l1.813-2.87h-0.682l-1.633,2.637h-1.025
	v-2.637h-0.6V55.73z M109.086,55.73h0.601l0.337-4.251c0.025-0.328,0.018-0.865,0.018-0.865h0.009c0,0,0.189,0.562,0.328,0.865
	l1.43,3.122h0.562l1.425-3.119c0.14-0.312,0.321-0.847,0.321-0.847h0.016c0,0-0.009,0.519,0.019,0.847l0.337,4.251h0.6l-0.483-6.074
	h-0.614l-1.593,3.565c-0.139,0.312-0.3,0.743-0.3,0.743h-0.021c0,0-0.155-0.432-0.295-0.743l-1.589-3.569h-0.622L109.086,55.73z
	 M117.009,53.613c-0.041,1.188,0.888,2.186,2.076,2.228c0.086,0.003,0.172,0.001,0.257-0.006c1.181,0.096,2.215-0.783,2.312-1.964
	c0.007-0.085,0.008-0.172,0.005-0.258v-3.958h-0.6v3.932c0.061,0.876-0.599,1.635-1.475,1.697c-0.083,0.006-0.167,0.004-0.25-0.002
	c-0.867,0.08-1.637-0.559-1.717-1.426c-0.008-0.085-0.009-0.17-0.003-0.255v-3.946h-0.6L117.009,53.613z M128.009,55.73h0.623
	l2.256-6.075h-0.638l-1.688,4.614c-0.113,0.312-0.233,0.786-0.233,0.786h-0.018c0,0-0.122-0.475-0.233-0.786l-1.686-4.614h-0.643
	L128.009,55.73z M132.304,55.73h3.577v-0.535H132.9v-2.256h2.307v-0.538H132.9v-2.209h2.826v-0.537h-3.423L132.304,55.73z
	 M137.671,55.73h0.601v-2.558h1.528l1.37,2.558h0.681l-1.32-2.446c-0.047-0.084-0.1-0.164-0.157-0.242v-0.018
	c0.716-0.217,1.191-0.895,1.15-1.641c0.042-0.659-0.32-1.277-0.915-1.564c-0.364-0.137-0.754-0.191-1.142-0.164h-1.8L137.671,55.73z
	 M138.271,52.636v-2.444h1.226c0.296-0.025,0.594,0.025,0.865,0.146c0.371,0.221,0.583,0.633,0.548,1.062
	c0.057,0.624-0.402,1.176-1.026,1.232c-0.058,0.006-0.115,0.006-0.174,0.003H138.271z M143.532,55.73h0.6v-4.373
	c0-0.319-0.051-0.821-0.051-0.821h0.017c0,0,0.295,0.52,0.5,0.821l3.1,4.372h0.579v-6.074h-0.601v4.372
	c0,0.32,0.052,0.821,0.052,0.821h-0.017c0,0-0.295-0.52-0.5-0.821l-3.1-4.372h-0.579V55.73z M150.471,55.73h3.577v-0.535h-2.985
	v-2.256h2.308v-0.538h-2.308v-2.209h2.826v-0.537h-3.424L150.471,55.73z M157.203,55.73h0.601v-5.538h2.177v-0.537h-4.96v0.537
	h2.186L157.203,55.73z M160.841,55.73h4.33v-0.535h-3.15c-0.295,0-0.45,0.017-0.45,0.017v-0.017c0.155-0.175,0.3-0.36,0.432-0.554
	l3.137-4.562v-0.424H161v0.537h2.956c0.147,0.002,0.294-0.004,0.44-0.018v0.018c0,0-0.2,0.232-0.424,0.553l-3.137,4.562
	L160.841,55.73z M168.29,55.73h0.601v-5.538h2.177v-0.537h-4.96v0.537h2.186L168.29,55.73z M171.764,55.73h0.683v-0.69h-0.683V55.73
	z"/>
<path fill="#D12B22" d="M73.415,0.001l-0.012,17.4l15.012-8.12L73.415,0.001z"/>
</svg>
